<svg xmlns="http://www.w3.org/2000/svg" width="1200" height="700" viewBox="0 0 1200 700" role="img" aria-label="Sidi Saiyyed inspired arch and skyline">
  <defs>
    <linearGradient id="bg" x1="0" x2="1" y1="0" y2="1">
      <stop offset="0%" stop-color="#1f2937"/>
      <stop offset="100%" stop-color="#fb7185"/>
    </linearGradient>
    <linearGradient id="overlay" x1="0" x2="0" y1="0" y2="1">
      <stop offset="0%" stop-color="rgba(255,255,255,0.16)"/>
      <stop offset="100%" stop-color="rgba(255,255,255,0.04)"/>
    </linearGradient>
  </defs>
  <rect width="1200" height="700" fill="url(#bg)"/>
  <circle cx="1010" cy="110" r="68" fill="rgba(255,255,255,0.14)"/>
  <path d="M0 560 C140 500 250 520 360 560 S 620 620 770 570 S 980 500 1200 560 L1200 700 L0 700 Z" fill="rgba(0,0,0,0.18)"/>
  <path d="M0 595 C180 545 350 600 500 585 S 830 545 1040 590 S 1170 610 1200 600 L1200 700 L0 700 Z" fill="rgba(0,0,0,0.22)"/>
<g transform="translate(730,190)" fill="rgba(255,255,255,0.20)"><rect x="20" y="150" width="260" height="180" rx="14"/><path d="M70 330 L70 220 Q70 130 150 110 Q230 130 230 220 L230 330 Z" fill="rgba(31,41,55,0.20)"/></g>
</svg>