<svg xmlns="http://www.w3.org/2000/svg" width="1200" height="700" viewBox="0 0 1200 700" role="img" aria-label="Texas Capitol and Congress Avenue skyline">
  <defs>
    <linearGradient id="bg" x1="0" x2="1" y1="0" y2="1">
      <stop offset="0%" stop-color="#4f46e5"/>
      <stop offset="100%" stop-color="#f97316"/>
    </linearGradient>
    <linearGradient id="overlay" x1="0" x2="0" y1="0" y2="1">
      <stop offset="0%" stop-color="rgba(255,255,255,0.16)"/>
      <stop offset="100%" stop-color="rgba(255,255,255,0.04)"/>
    </linearGradient>
  </defs>
  <rect width="1200" height="700" fill="url(#bg)"/>
  <circle cx="1010" cy="110" r="68" fill="rgba(255,255,255,0.14)"/>
  <path d="M0 560 C140 500 250 520 360 560 S 620 620 770 570 S 980 500 1200 560 L1200 700 L0 700 Z" fill="rgba(0,0,0,0.18)"/>
  <path d="M0 595 C180 545 350 600 500 585 S 830 545 1040 590 S 1170 610 1200 600 L1200 700 L0 700 Z" fill="rgba(0,0,0,0.22)"/>
<g fill="rgba(255,255,255,0.18)"><rect x="118" y="360" width="86" height="170" rx="8"/><rect x="222" y="325" width="78" height="205" rx="8"/><rect x="316" y="388" width="62" height="142" rx="8"/><rect x="400" y="300" width="92" height="230" rx="8"/></g><g transform="translate(730,215)"><rect x="35" y="170" width="250" height="130" rx="12" fill="rgba(255,255,255,0.15)"/><rect x="95" y="120" width="130" height="90" rx="8" fill="rgba(255,255,255,0.18)"/><ellipse cx="160" cy="105" rx="58" ry="48" fill="rgba(255,255,255,0.20)"/><rect x="145" y="35" width="30" height="70" rx="6" fill="rgba(255,255,255,0.22)"/></g>
</svg>