<svg xmlns="http://www.w3.org/2000/svg" width="1200" height="700" viewBox="0 0 1200 700" role="img" aria-label="Chicago skyline with Willis Tower">
  <defs>
    <linearGradient id="bg" x1="0" x2="1" y1="0" y2="1">
      <stop offset="0%" stop-color="#0f172a"/>
      <stop offset="100%" stop-color="#2563eb"/>
    </linearGradient>
    <linearGradient id="overlay" x1="0" x2="0" y1="0" y2="1">
      <stop offset="0%" stop-color="rgba(255,255,255,0.16)"/>
      <stop offset="100%" stop-color="rgba(255,255,255,0.04)"/>
    </linearGradient>
  </defs>
  <rect width="1200" height="700" fill="url(#bg)"/>
  <circle cx="1010" cy="110" r="68" fill="rgba(255,255,255,0.14)"/>
  <path d="M0 560 C140 500 250 520 360 560 S 620 620 770 570 S 980 500 1200 560 L1200 700 L0 700 Z" fill="rgba(0,0,0,0.18)"/>
  <path d="M0 595 C180 545 350 600 500 585 S 830 545 1040 590 S 1170 610 1200 600 L1200 700 L0 700 Z" fill="rgba(0,0,0,0.22)"/>
<g fill="rgba(255,255,255,0.18)"><rect x="110" y="340" width="92" height="200" rx="8"/><rect x="215" y="280" width="70" height="260" rx="8"/><rect x="300" y="360" width="65" height="180" rx="8"/><rect x="386" y="240" width="82" height="300" rx="8"/><rect x="482" y="310" width="70" height="230" rx="8"/></g><g fill="rgba(255,255,255,0.20)"><rect x="760" y="210" width="50" height="320" rx="10"/><path d="M785 150 L806 210 L764 210 Z" fill="rgba(255,255,255,0.24)"/><rect x="835" y="300" width="80" height="230" rx="8"/><rect x="930" y="250" width="60" height="280" rx="8"/></g>
</svg>