<svg xmlns="http://www.w3.org/2000/svg" width="1200" height="700" viewBox="0 0 1200 700" role="img" aria-label="Houston skyline and temple dome">
  <defs>
    <linearGradient id="bg" x1="0" x2="1" y1="0" y2="1">
      <stop offset="0%" stop-color="#1f2937"/>
      <stop offset="100%" stop-color="#f59e0b"/>
    </linearGradient>
    <linearGradient id="overlay" x1="0" x2="0" y1="0" y2="1">
      <stop offset="0%" stop-color="rgba(255,255,255,0.16)"/>
      <stop offset="100%" stop-color="rgba(255,255,255,0.04)"/>
    </linearGradient>
  </defs>
  <rect width="1200" height="700" fill="url(#bg)"/>
  <circle cx="1010" cy="110" r="68" fill="rgba(255,255,255,0.14)"/>
  <path d="M0 560 C140 500 250 520 360 560 S 620 620 770 570 S 980 500 1200 560 L1200 700 L0 700 Z" fill="rgba(0,0,0,0.18)"/>
  <path d="M0 595 C180 545 350 600 500 585 S 830 545 1040 590 S 1170 610 1200 600 L1200 700 L0 700 Z" fill="rgba(0,0,0,0.22)"/>
<g fill="rgba(255,255,255,0.18)"><rect x="118" y="350" width="84" height="190" rx="8"/><rect x="214" y="310" width="72" height="230" rx="8"/><rect x="300" y="380" width="60" height="160" rx="8"/><rect x="378" y="270" width="78" height="270" rx="8"/></g><g transform="translate(740,220)"><rect x="35" y="170" width="230" height="120" rx="14" fill="rgba(255,255,255,0.14)"/><path d="M78 170 Q150 78 220 170" fill="rgba(255,255,255,0.16)"/><rect x="125" y="136" width="48" height="54" rx="10" fill="rgba(255,255,255,0.20)"/></g>
</svg>