<svg xmlns="http://www.w3.org/2000/svg" width="1200" height="700" viewBox="0 0 1200 700" role="img" aria-label="Charminar silhouette">
  <defs>
    <linearGradient id="bg" x1="0" x2="1" y1="0" y2="1">
      <stop offset="0%" stop-color="#111827"/>
      <stop offset="100%" stop-color="#a855f7"/>
    </linearGradient>
    <linearGradient id="overlay" x1="0" x2="0" y1="0" y2="1">
      <stop offset="0%" stop-color="rgba(255,255,255,0.16)"/>
      <stop offset="100%" stop-color="rgba(255,255,255,0.04)"/>
    </linearGradient>
  </defs>
  <rect width="1200" height="700" fill="url(#bg)"/>
  <circle cx="1010" cy="110" r="68" fill="rgba(255,255,255,0.14)"/>
  <path d="M0 560 C140 500 250 520 360 560 S 620 620 770 570 S 980 500 1200 560 L1200 700 L0 700 Z" fill="rgba(0,0,0,0.18)"/>
  <path d="M0 595 C180 545 350 600 500 585 S 830 545 1040 590 S 1170 610 1200 600 L1200 700 L0 700 Z" fill="rgba(0,0,0,0.22)"/>
<g transform="translate(695,180)" fill="rgba(255,255,255,0.20)"><rect x="60" y="140" width="240" height="170" rx="14"/><path d="M125 310 L125 220 Q125 165 180 150 Q235 165 235 220 L235 310 Z" fill="rgba(17,24,39,0.20)"/><rect x="48" y="60" width="34" height="250" rx="14"/><rect x="278" y="60" width="34" height="250" rx="14"/><rect x="145" y="40" width="34" height="120" rx="14"/><rect x="185" y="40" width="34" height="120" rx="14"/></g>
</svg>