<svg xmlns="http://www.w3.org/2000/svg" width="1200" height="700" viewBox="0 0 1200 700" role="img" aria-label="Statue of Liberty and skyline">
  <defs>
    <linearGradient id="bg" x1="0" x2="1" y1="0" y2="1">
      <stop offset="0%" stop-color="#111827"/>
      <stop offset="100%" stop-color="#0ea5e9"/>
    </linearGradient>
    <linearGradient id="overlay" x1="0" x2="0" y1="0" y2="1">
      <stop offset="0%" stop-color="rgba(255,255,255,0.16)"/>
      <stop offset="100%" stop-color="rgba(255,255,255,0.04)"/>
    </linearGradient>
  </defs>
  <rect width="1200" height="700" fill="url(#bg)"/>
  <circle cx="1010" cy="110" r="68" fill="rgba(255,255,255,0.14)"/>
  <path d="M0 560 C140 500 250 520 360 560 S 620 620 770 570 S 980 500 1200 560 L1200 700 L0 700 Z" fill="rgba(0,0,0,0.18)"/>
  <path d="M0 595 C180 545 350 600 500 585 S 830 545 1040 590 S 1170 610 1200 600 L1200 700 L0 700 Z" fill="rgba(0,0,0,0.22)"/>
<g fill="rgba(255,255,255,0.18)"><rect x="110" y="340" width="84" height="190" rx="8"/><rect x="206" y="285" width="64" height="245" rx="8"/><rect x="285" y="320" width="58" height="210" rx="8"/><rect x="356" y="255" width="88" height="275" rx="8"/></g><g transform="translate(760,170)" fill="rgba(255,255,255,0.20)"><path d="M110 0 L146 24 L136 58 L164 96 L150 122 L176 170 L145 190 L158 258 L62 258 L76 190 L45 170 L71 122 L57 96 L85 58 L74 24 Z"/><rect x="92" y="258" width="54" height="54" rx="8"/><path d="M166 32 L222 -8" stroke="rgba(255,255,255,0.25)" stroke-width="12" stroke-linecap="round"/></g>
</svg>