<svg xmlns="http://www.w3.org/2000/svg" width="1200" height="700" viewBox="0 0 1200 700" role="img" aria-label="CN Tower skyline">
  <defs>
    <linearGradient id="bg" x1="0" x2="1" y1="0" y2="1">
      <stop offset="0%" stop-color="#111827"/>
      <stop offset="100%" stop-color="#8b5cf6"/>
    </linearGradient>
    <linearGradient id="overlay" x1="0" x2="0" y1="0" y2="1">
      <stop offset="0%" stop-color="rgba(255,255,255,0.16)"/>
      <stop offset="100%" stop-color="rgba(255,255,255,0.04)"/>
    </linearGradient>
  </defs>
  <rect width="1200" height="700" fill="url(#bg)"/>
  <circle cx="1010" cy="110" r="68" fill="rgba(255,255,255,0.14)"/>
  <path d="M0 560 C140 500 250 520 360 560 S 620 620 770 570 S 980 500 1200 560 L1200 700 L0 700 Z" fill="rgba(0,0,0,0.18)"/>
  <path d="M0 595 C180 545 350 600 500 585 S 830 545 1040 590 S 1170 610 1200 600 L1200 700 L0 700 Z" fill="rgba(0,0,0,0.22)"/>
<g fill="rgba(255,255,255,0.18)"><rect x="110" y="350" width="84" height="190" rx="8"/><rect x="205" y="315" width="64" height="225" rx="8"/><rect x="283" y="385" width="56" height="155" rx="8"/></g><g transform="translate(795,110)" fill="rgba(255,255,255,0.22)"><rect x="68" y="70" width="22" height="400" rx="10"/><ellipse cx="79" cy="205" rx="86" ry="30"/><path d="M79 0 L112 92 L46 92 Z"/></g>
</svg>